<svg xmlns="http://www.w3.org/2000/svg" width="22" height="25" viewBox="0 0 22 25"><defs><style>.cls-1{fill:#fff;fill-rule:evenodd;filter:url(#filter)}</style><filter id="filter" x="1457" y="26" width="22" height="25" filterUnits="userSpaceOnUse"><feFlood result="flood" flood-color="#e9c256"/><feComposite result="composite" operator="in" in2="SourceGraphic"/><feBlend result="blend" in2="SourceGraphic"/></filter></defs><path id="Фигура_1982_копия_2" data-name="Фигура 1982 копия 2" class="cls-1" d="M1479 28.922a9.6 9.6 0 0 1-.76 3.15c-.46 1.142-.99 2.251-1.48 3.379-.14.323-.24.66-.36.991a.225.225 0 0 0 .14.319.6.6 0 0 1 .32.364.575.575 0 0 1-.33.351.923.923 0 0 1-1.33-.611c-.02-.032-.04-.059-.06-.088a.785.785 0 0 0-.12.121c-.34.525-.64 1.077-1.01 1.575a8.17 8.17 0 0 1-4.21 3.116.374.374 0 0 0-.19.221c-.07.324-.11.659-.2.98a.344.344 0 0 1-.25.216q-1.155.025-2.31 0a.353.353 0 0 1-.25-.2c-.08-.328-.12-.668-.21-1a.339.339 0 0 0-.2-.223 8.811 8.811 0 0 1-4.8-4c-.14-.23-.27-.473-.41-.706a.378.378 0 0 0-.11-.1.656.656 0 0 0-.06.127 1 1 0 0 1-1.56.457c-.22-.19-.14-.481.18-.6a.232.232 0 0 0 .17-.362c-.37-.865-.73-1.733-1.11-2.588a16.692 16.692 0 0 1-1.42-4.3 3.985 3.985 0 0 1 .1-1.91 2.3 2.3 0 0 1 2.14-1.6 14.707 14.707 0 0 1 1.5.023h14.37a13.639 13.639 0 0 1 1.42-.035c1.61.173 2.41 1.101 2.4 2.933zm-2.31.488a18.781 18.781 0 0 1-.44 4.143.977.977 0 0 0 .01.24.88.88 0 0 0 .15-.177c.32-.788.66-1.569.95-2.371a7.3 7.3 0 0 0 .48-2.817 1.512 1.512 0 0 0-1.15-1.606c-.22-.046-.29 0-.25.248.11.92.2 1.842.25 2.34zm-17.17-2.6a1.256 1.256 0 0 0-1.22.964 4.961 4.961 0 0 0-.1 1.486 13.467 13.467 0 0 0 1.39 4.32.608.608 0 0 0 .14.14.743.743 0 0 0 .01-.21c-.13-1.115-.35-2.227-.38-3.345-.03-1.043.14-2.091.21-3.138a.507.507 0 0 0-.05-.227zm8.49 24.19h-4.94a.239.239 0 0 1-.29-.287c.02-.352.01-.706.01-1.058a.219.219 0 0 1 .26-.276c.39.009.78-.016 1.16.007a.3.3 0 0 0 .38-.393 2.031 2.031 0 0 1 0-.427.834.834 0 0 1 .8-.811 5.674 5.674 0 0 1 .57 0 .248.248 0 0 0 .29-.249c.09-.494.19-.984.28-1.478a.242.242 0 0 1 .28-.24q1.185.009 2.37 0a.256.256 0 0 1 .3.246c.08.481.19.959.27 1.441a.274.274 0 0 0 .34.28 4.633 4.633 0 0 1 .54 0 .825.825 0 0 1 .79.815v.093c.01.718.01.718.71.718.27 0 .54.008.81 0a.233.233 0 0 1 .29.278c-.01.358-.01.718 0 1.077a.223.223 0 0 1-.27.266c-1.65-.009-3.3-.002-4.95-.002zm0-5.677h-1.73a.206.206 0 0 1-.25-.249c0-.452-.01-.9.01-1.354a.308.308 0 0 1 .22-.222c1.16-.014 2.33-.014 3.49 0a.308.308 0 0 1 .22.221c.02.457.01.915.02 1.373a.2.2 0 0 1-.24.231c-.58-.007-1.16-.005-1.74-.005z" transform="translate(-1457 -26)"/></svg>