<svg xmlns="http://www.w3.org/2000/svg" width="34.31" height="30.563" viewBox="0 0 34.31 30.563"><defs><style>.cls-1{fill:#fff;fill-rule:evenodd;filter:url(#filter)}</style><filter id="filter" x="1621.63" y="785.25" width="34.31" height="30.563" filterUnits="userSpaceOnUse"><feFlood result="flood" flood-color="#1395d3"/><feComposite result="composite" operator="in" in2="SourceGraphic"/><feBlend result="blend" in2="SourceGraphic"/></filter></defs><path id="Фигура_755" data-name="Фигура 755" class="cls-1" d="M1645.86 785.386a9.716 9.716 0 0 0-6.11 3.7c-.68.827-1.2.823-1.89.011a15.109 15.109 0 0 0-2.02-1.986c-3.96-3.248-12.72-2.642-14.03 5.041a11.486 11.486 0 0 0 3.24 10.041c4.15 4.44 8.49 8.7 12.74 13.05a1.222 1.222 0 0 0 2.03 0c4.21-4.312 8.5-8.56 12.65-12.932a11.963 11.963 0 0 0 3.48-7.531c.01-6.58-4.45-10.294-10.09-9.394zm5.74 16.093c-2.73 2.873-5.56 5.743-8.3 8.519q-2.175 2.2-4.34 4.4a1.63 1.63 0 0 1-.16.146 1.6 1.6 0 0 1-.16-.142c-1.37-1.408-2.76-2.807-4.14-4.206-2.84-2.868-5.78-5.834-8.58-8.825a10.212 10.212 0 0 1-2.93-9.022 6.886 6.886 0 0 1 7.18-5.9 7.947 7.947 0 0 1 4.91 1.588 14.436 14.436 0 0 1 1.87 1.834 2.532 2.532 0 0 0 1.86 1.033 2.57 2.57 0 0 0 1.87-1.054 8.448 8.448 0 0 1 5.37-3.278 9.164 9.164 0 0 1 1.45-.119 6.851 6.851 0 0 1 4.97 1.958 8.746 8.746 0 0 1 2.28 6.348 10.747 10.747 0 0 1-3.15 6.72z" transform="translate(-1621.63 -785.25)"/></svg>