<svg xmlns="http://www.w3.org/2000/svg" width="34.21" height="30.625" viewBox="0 0 34.21 30.625"><defs><style>.cls-1{fill:#fff;fill-rule:evenodd;filter:url(#filter)}</style><filter id="filter" x="1331.88" y="785.688" width="34.21" height="30.625" filterUnits="userSpaceOnUse"><feFlood result="flood" flood-color="#1395d3"/><feComposite result="composite" operator="in" in2="SourceGraphic"/><feBlend result="blend" in2="SourceGraphic"/></filter></defs><path id="Фигура_756" data-name="Фигура 756" class="cls-1" d="M1366.09 795.246a12.041 12.041 0 0 1-3.47 7.547c-4.14 4.381-8.41 8.638-12.61 12.96a1.221 1.221 0 0 1-2.03 0c-4.23-4.357-8.56-8.63-12.7-13.079a11.548 11.548 0 0 1-3.23-10.063c1.31-7.7 10.05-8.307 13.99-5.051a15.759 15.759 0 0 1 2.02 1.99c.68.814 1.2.818 1.88-.011a9.649 9.649 0 0 1 6.09-3.706c5.62-.896 10.07 2.83 10.06 9.413z" transform="translate(-1331.88 -785.688)"/></svg>