<svg id="Layer_1" data-name="Layer 1" xmlns="http://www.w3.org/2000/svg" viewBox="0 0 34 34"><defs><style>.cls-1{fill:#cc4532}</style></defs><title>ic-g+</title><path class="cls-1" d="M143.64-24.68l.3-.6a3.84 3.84 0 0 0-.5-3.3 2.69 2.69 0 0 0-1.4-1.2 1.47 1.47 0 0 0-1.9.7 2.93 2.93 0 0 0-.4 1.6 3.84 3.84 0 0 0 .9 2.5 2.15 2.15 0 0 0 1.2.9 1.44 1.44 0 0 0 1.8-.6zm1.2 6.6c-.5-.4-1-.7-1.4-1-.1 0-.1-.1-.2-.1a4 4 0 0 0-1.9-.1 3.86 3.86 0 0 0-2.2 1.1 1.85 1.85 0 0 0-.2 2.5 2.33 2.33 0 0 0 1.2 1 4.47 4.47 0 0 0 2 .4h.5a4.79 4.79 0 0 0 1.7-.5 2.08 2.08 0 0 0 1.1-2.4 1.46 1.46 0 0 0-.6-.9zm1.4-21a17 17 0 0 0-17 17 17 17 0 0 0 17 17 17 17 0 0 0 17-17 17.11 17.11 0 0 0-17-17zm.7 24.4a4.89 4.89 0 0 1-1.8 1.4 6.58 6.58 0 0 1-3 .7 9.15 9.15 0 0 1-4-.7 6 6 0 0 1-1.5-.9 2.91 2.91 0 0 1-.8-3.5 5.26 5.26 0 0 1 2-2.2 6.53 6.53 0 0 1 3.6-1h.2a2.06 2.06 0 0 1-.2-1.7 1.27 1.27 0 0 1-.6-.1 4.56 4.56 0 0 1-3.9-3.8 3.89 3.89 0 0 1 1-3.3 5.59 5.59 0 0 1 3.8-1.9H148a.32.32 0 0 1 .3.3.48.48 0 0 1-.2.5 14.63 14.63 0 0 1-1.3.9.37.37 0 0 1-.3.1h-.4v.1a4.22 4.22 0 0 1-.6 5.8c-.2.2-.4.3-.6.5a1 1 0 0 0-.4.5.6.6 0 0 0 0 .8 5.74 5.74 0 0 0 1.1 1.1 4.25 4.25 0 0 0 .7.5 4.56 4.56 0 0 1 1.5 2.7 5 5 0 0 1-.86 3.2zm9.9-7.9a.47.47 0 0 1-.5.5h-3.2V-19a.43.43 0 0 1-.5.5h-.8a.47.47 0 0 1-.5-.5v-3.1h-3.1a.47.47 0 0 1-.5-.5v-.8a.47.47 0 0 1 .5-.5h3.1V-27a.53.53 0 0 1 .6-.6h.8a.47.47 0 0 1 .5.5v3.2h3.1a.43.43 0 0 1 .5.5v.8z" transform="translate(-129.24 39.08)"/></svg>