<svg id="Layer_1" data-name="Layer 1" xmlns="http://www.w3.org/2000/svg" viewBox="0 0 34 34"><defs><style>.cls-1{fill:#2a5a82}</style></defs><title>ic-inst</title><path class="cls-1" d="M232.81-22.3c-.2 0-.2.1-.2.3a8.55 8.55 0 0 1 0 1.6 4.93 4.93 0 0 1-5.5 4.2 4.84 4.84 0 0 1-4.2-5.8.22.22 0 0 0-.2-.2h-.8c-.3 0-.3.1-.3.3v6a1 1 0 0 0 .9 1.1c1.7 0 3.5.2 5.2.2h5.2a1 1 0 0 0 1-1.1v-5.4c0-1.1 0-1.2-1.1-1.2zm-5.1 4.4a3.2 3.2 0 0 0 3.2-3.1 3.14 3.14 0 0 0-3.2-3.1 3.12 3.12 0 0 0-3.1 3.1 3.11 3.11 0 0 0 3.1 3.1zm5.4-9.4h-1.6a.86.86 0 0 0-.8.8v1.6a.86.86 0 0 0 .8.8h.8c1.5 0 1.6-.1 1.6-1.6v-.8a.86.86 0 0 0-.8-.8zm-5.4-10.8a17 17 0 0 0-17 17 17 17 0 0 0 17 17 17 17 0 0 0 17-17 17 17 0 0 0-17-17zm5.9 25.5h-11.9a2.16 2.16 0 0 1-2.1-2.3v-11.7a1.87 1.87 0 0 1 2.1-2h11.8a1.94 1.94 0 0 1 2.1 2.1v5.9c.1 1 .1 3.9.1 5.9a1.94 1.94 0 0 1-2.1 2.1z" transform="translate(-210.71 38.1)"/></svg>