<svg id="Layer_1" data-name="Layer 1" xmlns="http://www.w3.org/2000/svg" viewBox="0 0 34 33.99"><defs><style>.cls-1{fill:#ea5b0c}</style></defs><title>ic-ok</title><path class="cls-1" d="M103.56-24.78a2.89 2.89 0 0 0 2.9-2.81 2.8 2.8 0 0 0-2.8-2.81 2.87 2.87 0 0 0-2.8 2.81 2.78 2.78 0 0 0 2.7 2.81zm.1-14.22a17 17 0 0 0-17 16.95 17 17 0 0 0 17 17 17 17 0 0 0 17-17 17 17 0 0 0-17-16.95zm0 5.72a5.73 5.73 0 0 1 5.7 5.82 5.68 5.68 0 0 1-5.7 5.62A5.64 5.64 0 0 1 98-27.59a5.71 5.71 0 0 1 5.66-5.72zm6.4 13.64a10.66 10.66 0 0 1-1.1.9 8.11 8.11 0 0 1-2.9 1.2c-.4.1-.8.1-1.3.2h-.1l.1.1 3.7 3.71.5.5a1.38 1.38 0 0 1 .1 1.81 1 1 0 0 1-.9.5 1.13 1.13 0 0 1-1.1-.3l-1.1-1.1-2.2-2.21c-.1-.1-.1-.1-.2 0l-3.2 3.21a1 1 0 0 1-1 .4 1.13 1.13 0 0 1-.8-.3l-.4-.4a1.23 1.23 0 0 1 .2-1.6l4.2-4.21.1-.1h-.3a7.47 7.47 0 0 1-3.3-1 9.07 9.07 0 0 1-1.6-1.1 2.19 2.19 0 0 1-.5-.8 2.21 2.21 0 0 1 .1-.8 1.32 1.32 0 0 1 1.9-.7l.6.3a5.14 5.14 0 0 0 2 .9 7.77 7.77 0 0 0 2.2.3 3.39 3.39 0 0 0 1-.1 10.42 10.42 0 0 0 1.7-.4 5.55 5.55 0 0 0 1.7-.9 1.77 1.77 0 0 1 1-.4 1.43 1.43 0 0 1 1.2.6 1.92 1.92 0 0 1 .3.8 1.91 1.91 0 0 1-.6.96z" transform="translate(-86.66 39.02)"/></svg>