<svg id="Layer_1" data-name="Layer 1" xmlns="http://www.w3.org/2000/svg" viewBox="0 0 34 34"><defs><style>.cls-1{fill:#52759b}</style></defs><title>ic-vk</title><path class="cls-1" d="M17-39.87a17 17 0 0 0-17 17 17 17 0 0 0 17 17 17 17 0 0 0 17-17 17 17 0 0 0-17-17zm8.4 23.7h-3.3a1.42 1.42 0 0 1-.6-.2c-.6-.6-1.2-1.2-1.9-1.8a5.74 5.74 0 0 0-.8-.7.38.38 0 0 0-.7.2 2 2 0 0 0-.1.8 3.4 3.4 0 0 1-.1 1c0 .1-.1.2-.1.3a.55.55 0 0 1-.6.4h-2.7a1.42 1.42 0 0 1-.6-.2 8.9 8.9 0 0 1-2.6-2.1A32.81 32.81 0 0 1 8-22.78a26.94 26.94 0 0 1-1.6-2.9c-.1-.2-.2-.5-.3-.7a1.06 1.06 0 0 1 .1-.8.53.53 0 0 1 .3-.2h3a1.06 1.06 0 0 1 .5.2 3.53 3.53 0 0 1 .8 1.3 23 23 0 0 0 2.1 3.3.46.46 0 0 0 .5.3c.2 0 .3 0 .3-.3v-3.5a.33.33 0 0 0-.4-.4h-.1a.42.42 0 0 1-.5-.3.78.78 0 0 1 .2-.8 1.49 1.49 0 0 1 .7-.3h3.2a.9.9 0 0 1 .5.1 1 1 0 0 1 .8.9v4.4a.25.25 0 0 0 .4.2 1.75 1.75 0 0 0 .5-.4 6 6 0 0 0 .9-1.3c.4-.9.8-1.9 1.3-2.8v-.1a.67.67 0 0 1 .7-.5h3.4a.9.9 0 0 1 .5.1.67.67 0 0 1 .5.7 2 2 0 0 1-.4 1.3c-.5.6-.9 1.2-1.4 1.9a12.74 12.74 0 0 0-1.3 1.9.45.45 0 0 0 0 .5c.7.8 1.5 1.6 2.2 2.5.3.3.5.6.8.9a1 1 0 0 1-.8 1.4z" transform="translate(0 39.88)"/></svg>