<svg id="Layer_1" data-name="Layer 1" xmlns="http://www.w3.org/2000/svg" viewBox="0 0 34 34"><defs><style>.cls-1{fill:#e61e12}</style></defs><title>ic-ya</title><path class="cls-1" d="M188.48-30.77h-.8a3.19 3.19 0 0 0-3 1.9 7.06 7.06 0 0 0-.5 3.8 3.55 3.55 0 0 0 .2 1c.6 2.2 2.1 3.2 4.6 2.8v-9.1c-.1-.4-.2-.5-.5-.4zm-1.5-8.1a17 17 0 0 0-17 17 17 17 0 0 0 17 17 17 17 0 0 0 17-17 17 17 0 0 0-16.98-17zm3.6 27.1h-1.2c-.4 0-.5-.1-.5-.5v-7.2h-1.2a.32.32 0 0 0-.3.3c-1.1 2.1-2.2 4.1-3.1 6.2-.5 1-1 1.5-2.1 1.3h-.6c-.5 0-.6-.1-.3-.6.5-.8.9-1.7 1.4-2.5.9-1.5 1.7-3.1 2.6-4.6.1-.1.1-.2.2-.3l-.1-.1a5.6 5.6 0 0 1-3.3-4.9 7.74 7.74 0 0 1 .8-4.7 5.14 5.14 0 0 1 4.7-3h3.2c.4 0 .5.1.5.5V-12a.66.66 0 0 1-.7.23z" transform="translate(-169.98 38.87)"/></svg>