<svg xmlns="http://www.w3.org/2000/svg" width="18" height="14" viewBox="0 0 18 14"><defs><style>.cls-1{fill:#1395d3;fill-rule:evenodd;filter:url(#filter)}</style><filter id="filter" x="1639" y="32" width="18" height="14" filterUnits="userSpaceOnUse"><feFlood result="flood" flood-color="#717171"/><feComposite result="composite" operator="in" in2="SourceGraphic"/><feBlend result="blend" in2="SourceGraphic"/></filter></defs><path class="cls-1" d="M17.31 0a231.816 231.816 0 0 0-4.35 4.666c-.85.856-1.63 1.789-2.48 2.645C9.47 8.4 8.53 8.322 7.37 7.078 5.2 4.822 3.1 2.488.93.156L.77 0h16.54zM.62 14c1.63-1.322 3.1-2.644 4.65-3.889.62-.466 1.17-1.011 1.79-1.478h.23a2.619 2.619 0 0 0 3.5.078.93.93 0 0 1 .69.311c1.95 1.633 3.89 3.267 5.91 4.978H.62zM-.01.933q3.27 3.5 6.53 7c-2.18 1.789-4.27 3.655-6.53 5.522V.932zm11.49 6.922q3.27-3.5 6.53-7v12.522c-2.26-1.867-4.35-3.656-6.53-5.522z"/></svg>