<svg xmlns="http://www.w3.org/2000/svg" width="144" height="144" viewBox="0 0 144 144"><title>pic15</title><g data-name="Слой 2"><path d="M144 72V18a17 17 0 0 0-4-12 18 18 0 0 0-14-6H27A17 17 0 0 0 8 16v27h1l9-7a3 3 0 0 0 1-2V16a6 6 0 0 1 6-5h104a5 5 0 0 1 3 4v114a6 6 0 0 1-6 5H27l-6-2a7 7 0 0 1-2-5v-16a3 3 0 0 0-2-3l-9-7v29a16 16 0 0 0 14 14h103a19 19 0 0 0 16-8 17 17 0 0 0 3-10V72zm-43 16a6 6 0 0 0 7-6V61a6 6 0 0 0-6-6H52c-2 0-2 0-2-2V39a4 4 0 0 0-2-4h-5L1 71c-1 1-1 1 0 2l43 34a4 4 0 0 0 5-1 120 120 0 0 0 1-15c0-1 0-2 2-2z" data-name="Слой 1"/></g></svg>