<svg xmlns="http://www.w3.org/2000/svg" width="162" height="144" viewBox="0 0 162 144"><defs><style>.\37 41551a1-3d0a-4895-93cf-6299b4638590{fill:#fff}</style></defs><title>pic1</title><g id="85ef3459-8ef7-42db-8f90-065305c5da4e" data-name="Слой 2"><g id="838e81e2-76f3-4562-9835-bfba52da1bcb" data-name="Слой 1"><path id="f5448c7d-02b4-4ca3-a408-67e6a91ac363" data-name="Фигура 1981" class="741551a1-3d0a-4895-93cf-6299b4638590" d="M20 70l11-5v36h100V65l11 5v67a6 6 0 0 1-5 6H26a5 5 0 0 1-6-6V71zm110-26a17 17 0 0 1-18 14 17 17 0 0 1-15-14 16 16 0 0 1-33 0 17 17 0 0 1-6 11 16 16 0 0 1-12 4 17 17 0 0 1-14-15v2a16 16 0 0 1-32-1 4 4 0 0 1 1-4l20-21 3-2h117l20 22a4 4 0 0 1 1 4 16 16 0 0 1-16 13 16 16 0 0 1-15-13zm12-33H20a54 54 0 0 1 0-8 6 6 0 0 1 6-4h109a6 6 0 0 1 7 7v5z"/></g></g></svg>