<svg xmlns="http://www.w3.org/2000/svg" width="135" height="135" viewBox="0 0 135 135"><title>pic14</title><g data-name="Слой 2"><g data-name="Слой 1"><path data-name="Фигура 1427" d="M111 58l-5 5-13 13-11 11a15 15 0 0 1-21 0L48 75a15 15 0 0 1 0-21l21-22 8-8-3-3L60 7l-3-4a2 2 0 0 1 0-2h74a4 4 0 0 1 4 4 49 49 0 0 1 1 7v61a19 19 0 0 1-1 5h-3l-5-4-14-13zM59 26l-5 4-10 11H26a10 10 0 0 0-9 6 11 11 0 0 0-1 4v58a10 10 0 0 0 9 10h58a10 10 0 0 0 10-7V92l14-14h1v31a25 25 0 0 1-7 18 24 24 0 0 1-16 7H26a25 25 0 0 1-17-6 25 25 0 0 1-9-18 17 17 0 0 1 0-2V52a25 25 0 0 1 7-18 23 23 0 0 1 16-7h36z"/></g></g></svg>