<svg xmlns="http://www.w3.org/2000/svg" width="309" height="275" viewBox="0 0 309 275"><defs><style>.ff4d4ee8-5e3e-4bc5-8c93-54bcdf00f349{fill:#fff}</style></defs><title>pic18</title><g id="d3bd955e-665d-4473-978d-ef3c93c55e91" data-name="Слой 2"><g id="05310022-b93a-4093-9b3a-cb89a81b22c6" data-name="Слой 1"><path id="9f14a075-7695-4c3b-b136-a6085da731c3" data-name="Фигура 755" class="ff4d4ee8-5e3e-4bc5-8c93-54bcdf00f349" d="M218 1a87 87 0 0 0-55 33c-6 7-11 7-17 0a136 136 0 0 0-18-18C92-12 13-7 1 62a103 103 0 0 0 29 90c37 40 76 78 115 117a11 11 0 0 0 15 3l3-3c38-39 77-77 114-116a108 108 0 0 0 31-68c1-58-39-92-90-84zm52 145l-75 77-39 40h-3l-37-38c-26-26-52-53-77-79a92 92 0 0 1-27-82 62 62 0 0 1 65-53 72 72 0 0 1 44 14 130 130 0 0 1 17 17 23 23 0 0 0 17 9 23 23 0 0 0 17-9 76 76 0 0 1 48-30h13a62 62 0 0 1 45 18 79 79 0 0 1 21 57 97 97 0 0 1-29 59z"/></g></g></svg>