<svg xmlns="http://www.w3.org/2000/svg" width="156" height="161" viewBox="0 0 156 161"><defs><style>.\31 6adffd2-533a-4f66-a700-65ee57c98287{fill:#fff}.\35 382c88b-d918-49d7-a23f-717aa2f5a240{isolation:isolate}</style></defs><title>pic12</title><g id="fe59e231-ef48-42e8-bfe7-fcc8f9475a60" data-name="Слой 2"><g id="fff51bab-bdee-4806-b7aa-bcfa7d1a63e1" data-name="Слой 1"><path id="27f6cc9f-bacc-49fa-bce4-638e7b6e2ea5" data-name="Фигура 1978" class="16adffd2-533a-4f66-a700-65ee57c98287" d="M0 108l2-7 5-7 20-21a22 22 0 0 1 31-1h1l-5 5-6 7h-2a11 11 0 0 0-10 3l-14 16a11 11 0 0 0 0 15l13 13a11 11 0 0 0 15 0l13-13a13 13 0 0 0 4-11v-2l12-11a21 21 0 0 1 6 12 22 22 0 0 1-7 20l-19 20a23 23 0 0 1-32 1h-1L7 127a24 24 0 0 1-7-14v-5zm153-63v4a22 22 0 0 1-6 10l-22 20a22 22 0 0 1-31 1l8-9 2-2a5 5 0 0 1 5-2 10 10 0 0 0 8-3l15-15a11 11 0 0 0 0-15l-13-12a11 11 0 0 0-15 0L90 36a11 11 0 0 0-4 11L74 60a22 22 0 0 1-5-25l4-6L97 6a22 22 0 0 1 29 0l22 22a20 20 0 0 1 5 11v5zm-95 57a7 7 0 0 1-6-4 8 8 0 0 1 1-8h1l35-37a8 8 0 0 1 11-1h1a8 8 0 0 1 0 10v2L65 99a9 9 0 0 1-7 3z"/><g id="c2f572cf-edbb-46a4-ae47-61c2c6764038" class="5382c88b-d918-49d7-a23f-717aa2f5a240"><path class="16adffd2-533a-4f66-a700-65ee57c98287" d="M114 161v-26H89v-17h25V93h17v25h25v17h-25v25z"/></g></g></g></svg>