<svg xmlns="http://www.w3.org/2000/svg" width="162" height="162" viewBox="0 0 162 162"><defs><style>.\36 fd90f8a-15b3-41a9-be38-df7cfccef3d5{fill:#558496}</style></defs><title>pic10</title><g id="00a4f840-0006-4342-a53d-36ee5333a2c0" data-name="Слой 2"><g id="8911580c-517c-4fb0-95be-d82e7a9603b9" data-name="Слой 1"><path id="70f7aa69-f8a1-466c-8bac-d966616988a8" data-name="Фигура 1493" class="6fd90f8a-15b3-41a9-be38-df7cfccef3d5" d="M31 38a40 40 0 0 1 11-28 31 31 0 0 1 43-2l3 3a42 42 0 0 1 1 55 31 31 0 0 1-44 4l-5-5a41 41 0 0 1-9-27zm75 69H91a11 11 0 0 0-12 12v11H9a8 8 0 0 1-9-8 8 8 0 0 1 0-1v-12a11 11 0 0 1 6-9l38-21h2a38 38 0 0 0 37 0h2l20 11h1v15zm9-19h19v28h28v18h-28v28h-18v-28H88v-18h28z"/></g></g></svg>