<svg xmlns="http://www.w3.org/2000/svg" width="738" height="720" viewBox="0 0 738 720"><defs><style>.\30 1fd9e76-4559-493a-ab88-ee2c0b2d06e1{fill:#e6e6e6}</style></defs><title>pic16</title><g id="7eadd104-eeb6-4a62-9758-11a5675c2cda" data-name="Слой 2"><path class="01fd9e76-4559-493a-ab88-ee2c0b2d06e1" d="M132 466l-99 58A380 380 0 0 1 4 413h112c4 11 8 34 16 53zm73 95l-58 97a333 333 0 0 1-85-86l99-58a270 270 0 0 0 44 47zm47 30a208 208 0 0 0 68 20v109a388 388 0 0 1-120-31l49-90zm196 0l55 94a307 307 0 0 1-122 36V610a234 234 0 0 0 67-20zm97-80l90 56a353 353 0 0 1-86 90l-58-90a257 257 0 0 0 54-56zM738 82v330c-86-54-186-107-285-163l89-57c-65-74-144-95-233-79-183 33-197 189-198 238H0a319 319 0 0 1 3-35S6 132 217 33C382-37 520 8 641 137z" id="115a4226-8bb5-4bca-b2ac-4c0b49b2bf66" data-name="Слой 1"/></g></svg>