<svg xmlns="http://www.w3.org/2000/svg" width="153" height="153" viewBox="0 0 153 153"><title>pic13</title><g data-name="Слой 2"><g data-name="Слой 1"><path data-name="Фигура 1435" d="M77 153H66a4 4 0 0 1-4-5 13 13 0 0 0-1-9 13 13 0 0 0-17-6l-5 4a5 5 0 0 1-4 3h-3a76 76 0 0 1-17-16 4 4 0 0 1 0-6h1a13 13 0 0 0 4-18l-5-5a13 13 0 0 0-9-1H2v-5a74 74 0 0 1-1-23 4 4 0 0 1 5-4 14 14 0 0 0 10-2 13 13 0 0 0 6-12 13 13 0 0 0-6-10h-1a4 4 0 0 1-1-6 79 79 0 0 1 16-16 4 4 0 0 1 6 0h1a14 14 0 0 0 8 6 13 13 0 0 0 14-7 15 15 0 0 0 1-9 4 4 0 0 1 3-5h1a75 75 0 0 1 22 0 4 4 0 0 1 4 4 13 13 0 0 0 23 10 4 4 0 0 1 6-1 81 81 0 0 1 16 15 4 4 0 0 1 0 6h-1a13 13 0 0 0-5 13 13 13 0 0 0 14 11h2a4 4 0 0 1 5 3 74 74 0 0 1 0 23 4 4 0 0 1-4 4h-9a13 13 0 0 0-8 13 13 13 0 0 0 6 10 4 4 0 0 1 2 6h-1l-11 13-5 4a4 4 0 0 1-6-1 13 13 0 0 0-14-6 13 13 0 0 0-10 15v2a4 4 0 0 1-4 5h-9zm32-77a33 33 0 1 0 0 1v-1z"/></g></g></svg>