<svg xmlns="http://www.w3.org/2000/svg" width="144" height="153" viewBox="0 0 144 153"><title>pic11</title><g data-name="Слой 2"><g data-name="Слой 1"><path data-name="Фигура 1434" d="M144 104v38a3 3 0 0 1-3 3h-2l-10-7-18-12-28-17-2-2a3 3 0 0 1-1-4h1l16-12 23-16 18-13a4 4 0 0 1 6 3v38zm-73 49H13l-3-2a2 2 0 0 1 1-3l11-7 34-23 12-8a5 5 0 0 1 6 0l15 10 19 13 19 13 2 2a3 3 0 0 1-1 4H71zM0 103V66a4 4 0 0 1 1-3 4 4 0 0 1 5 0l30 21 26 18a3 3 0 0 1 2 4l-2 2-20 13-23 15-12 8a4 4 0 0 1-5 0 4 4 0 0 1-2-4zm26-33l-7-5-5-3a2 2 0 0 1-1-2V15a16 16 0 0 1 1-8 13 13 0 0 1 11-7h92a14 14 0 0 1 12 5 13 13 0 0 1 3 8v47h-1l-13 9V23a12 12 0 0 0-1-5 10 10 0 0 0-10-6H37a10 10 0 0 0-10 5 13 13 0 0 0-1 5v45zm47-20h29a6 6 0 0 1 7 7 6 6 0 0 1-7 5H44a7 7 0 0 1-6-3 6 6 0 0 1 2-9h33zm0-8H44a7 7 0 0 1-6-4 6 6 0 0 1 3-8h62a7 7 0 0 1 6 3 6 6 0 0 1 1 6 6 6 0 0 1-5 4H73zm0 29h29a7 7 0 0 1 6 4 1 1 0 0 1-1 2l-9 6H44l-7-5a6 6 0 0 1 6-6h30zM56 91h30l-3 2-8 5a5 5 0 0 1-6 0l-12-6z"/></g></g></svg>