<svg xmlns="http://www.w3.org/2000/svg" width="308" height="275" viewBox="0 0 308 275"><defs><style>.\38 641a438-6f27-44c1-8fb6-11b036f76bda{fill:#fff}</style></defs><title>pic17</title><g id="9144cb8b-22f0-4e86-9cdc-27be4c4daff7" data-name="Слой 2"><g id="1f37d7ad-98bd-4d38-870d-b156bbafb17f" data-name="Слой 1"><path id="0563bbbe-661c-4863-bbfc-62cac127ecea" data-name="Фигура 756" class="8641a438-6f27-44c1-8fb6-11b036f76bda" d="M308 86a108 108 0 0 1-31 68c-37 39-76 78-113 117a11 11 0 0 1-15 3l-3-3c-38-39-77-78-114-118A104 104 0 0 1 1 62C13-7 92-13 127 17a142 142 0 0 1 18 18c6 7 11 7 17 0a87 87 0 0 1 55-34c51-8 91 26 91 85z"/></g></g></svg>