<svg xmlns="http://www.w3.org/2000/svg" width="135" height="153" viewBox="0 0 135 153"><defs><style>.\36 12786a9-d7f7-4eb1-9089-30b14e35501c{fill:#fff}</style></defs><title>pic2</title><g id="92bdce2c-add7-4027-8142-6d893dd99014" data-name="Слой 2"><g id="7a300190-2420-4a89-a8a0-e95a8c80473b" data-name="Слой 1"><path id="e0e1e4f4-899c-4d50-9a6b-1cef341a313a" data-name="Фигура 1983" class="612786a9-d7f7-4eb1-9089-30b14e35501c" d="M69 153H15a10 10 0 0 1-10-6 30 30 0 0 1-2-7l-2-11v-8a39 39 0 0 1 0-5 7 7 0 0 1 1-5l5-3 6 2 8 5 8 4h5l7-2a16 16 0 0 0 8-10 16 16 0 0 0-5-16 17 17 0 0 0-13-4l-6 2-7 4-6 3H7a6 6 0 0 1-6-4 9 9 0 0 1-1-5v-6c0-2 0-4 1-6V50a9 9 0 0 1 4-5h47a2 2 0 0 0 2-2l-2-4-4-6a19 19 0 0 1-2-11A24 24 0 0 1 64 1a24 24 0 0 1 27 12 21 21 0 0 1 2 8 18 18 0 0 1-1 9l-2 4-4 6v3a2 2 0 0 0 2 3h40l6 4a11 11 0 0 1 2 7v85a14 14 0 0 1-2 7 11 11 0 0 1-8 5H69z"/></g></g></svg>