<svg xmlns="http://www.w3.org/2000/svg" width="93" height="146" viewBox="0 0 93 146"><defs><style>.\39 c47e5ab-a557-4af9-ae42-981702cd394d{isolation:isolate}.\33 f1d2f66-3f0f-4db9-a7ef-0c9c8488f2c7{fill:#767676}</style></defs><title>pic3</title><g id="317b29ec-0f10-4f36-ba0d-8d90e8d3f00e" data-name="Слой 2"><g id="64596c74-df08-4c9e-a1ef-1104424d3edc" data-name="Слой 1"><g id="5f616353-46fc-4808-811c-f869e01cf8c4" class="9c47e5ab-a557-4af9-ae42-981702cd394d"><path class="3f1d2f66-3f0f-4db9-a7ef-0c9c8488f2c7" d="M29 105q0-14 4-20t16-16a52 52 0 0 0 11-12 27 27 0 0 0 4-15q0-9-5-14t-13-5a18 18 0 0 0-12 4q-5 4-5 13H0q0-20 13-30T46 0q22 0 35 11t12 31a40 40 0 0 1-7 23 66 66 0 0 1-19 18q-6 5-8 9t-2 13zm29 41H29v-25h29z"/></g></g></g></svg>