<svg xmlns="http://www.w3.org/2000/svg" width="68" height="68" viewBox="0 0 68 68"><defs><style>.b121f70b-3e95-4d85-8dfd-3c8e1593f30b{fill:#fefefe}.\31 7f01795-14dc-4075-aa62-adf6b21de73d{fill:#8bc4e6}</style></defs><title>pic44</title><g id="a2332b55-53f9-45b6-9211-4530a45df5e0" data-name="Слой 2"><g id="e6544cb1-09ae-4cfa-ab02-b827b87ed023" data-name="Слой 1"><path class="b121f70b-3e95-4d85-8dfd-3c8e1593f30b" d="M34 1h35v68H3c-1 0-2 0-2-2s7-2 10-2h46c6 0 8-2 8-8 0-20 0-20-20-20s-13-2-13-13-2-16 2-23z" transform="translate(-1 -1)"/><path class="17f01795-14dc-4075-aa62-adf6b21de73d" d="M34 1v33h33v33H1V1z" transform="translate(-1 -1)"/><path class="b121f70b-3e95-4d85-8dfd-3c8e1593f30b" d="M6 6h24v26c0 9 2 7 7 7h25v23H6z" transform="translate(-1 -1)"/></g></g></svg>