<svg xmlns="http://www.w3.org/2000/svg" width="162" height="144" viewBox="0 0 162 144"><defs><style>.\31 c6c50f7-f847-4a34-b847-992322434a23{fill:#fff}</style></defs><title>pic4</title><g id="85385787-50e5-499b-960e-344eef4e382c" data-name="Слой 2"><g id="708eeb35-0a31-4621-9da1-4ddf4b4a4b11" data-name="Слой 1"><path id="385b90b5-014c-4b6e-b9c3-8a50d62d460f" data-name="Фигура 1979" class="1c6c50f7-f847-4a34-b847-992322434a23" d="M72 144H23a24 24 0 0 1-23-22V25A24 24 0 0 1 24 0h96a24 24 0 0 1 20 12l2 2c16 4 22 13 19 28s-7 58-11 77a36 36 0 0 1-34 26H72zm0-12h46a13 13 0 0 0 14-13V25a13 13 0 0 0-13-13H25a12 12 0 0 0-12 12v96a12 12 0 0 0 13 12h46zM26 44V32a7 7 0 0 1 7-7h24a6 6 0 0 1 8 5v26a6 6 0 0 1-7 6H34a7 7 0 0 1-7-7V44zm84 38a5 5 0 0 1 5 6 5 5 0 0 1-4 6H32a5 5 0 0 1-5-6 5 5 0 0 1 4-5h80zm0 22a5 5 0 0 1 5 6 5 5 0 0 1-4 6H32a5 5 0 0 1-5-6 5 5 0 0 1 4-5h80zm0-79a5 5 0 0 1 5 4 5 5 0 0 1-3 7H79a5 5 0 0 1-5-5 5 5 0 0 1 4-5h32zm0 26a4 4 0 0 1 5 5c0 4 0 7-5 7H78a5 5 0 0 1-5-4v-2a5 5 0 0 1 4-5h33z"/></g></g></svg>