<svg xmlns="http://www.w3.org/2000/svg" width="162" height="162" viewBox="0 0 162 162"><defs><style>.\38 f1655fe-c1a1-4a43-b2c9-bd77da31c56b{fill:#fff}</style></defs><title>pic6</title><g id="a9e5f356-b49c-4fba-975a-15223d87d9b2" data-name="Слой 2"><g id="7f92a8ef-99c8-4e56-82bb-cd33f64d4d1b" data-name="Слой 1"><path id="fb98776d-cd04-4e1b-b445-80dac7df57f4" data-name="Фигура 1428" class="8f1655fe-c1a1-4a43-b2c9-bd77da31c56b" d="M39 53v8a14 14 0 1 0 27 0v-8h30v8a14 14 0 0 0 14 14 14 14 0 0 0 13-14v-8h34c5 0 6 1 5 6l-18 72-5 20a14 14 0 0 1-14 11H38a14 14 0 0 1-14-11L0 58c-1-5 0-5 4-6h35zm8-26a35 35 0 0 1 69 7v27a7 7 0 1 1-14 0V35a21 21 0 0 0-42-5 31 31 0 0 0-1 9v22a7 7 0 0 1-6 8 7 7 0 0 1-7-7V46a101 101 0 0 1 1-19z"/></g></g></svg>