<svg xmlns="http://www.w3.org/2000/svg" width="162" height="162" viewBox="0 0 162 162"><title>pic8</title><g data-name="Слой 2"><g data-name="Слой 1"><path data-name="Фигура 1431" d="M33 40l-7 5H12a2 2 0 0 0-3 2 3 3 0 0 0 2 3h135a7 7 0 0 1 6 3v36h-12a21 21 0 0 0-13 4 19 19 0 0 0-8 13 20 20 0 0 0 13 21h21v25a6 6 0 0 1-6 6H6a7 7 0 0 1-6-5V54a31 31 0 0 1 1-8 7 7 0 0 1 7-6h25zm-2 7L98 0l20 25h-1L62 46H30zm131 40v29l-9 7h-13a15 15 0 0 1-13-6 15 15 0 0 1 4-21l6-2h16l8-7h1zm-30 23a8 8 0 0 0 8 7 7 7 0 0 0 1-15h-1a8 8 0 0 0-8 7zM71 47l58-20 8 20H71zm86 38V50a5 5 0 0 0-5-5h-12l-2-4h14l6 2 2 3a6 6 0 0 1 1 4v33h-1l-4 2zm5 37v24a6 6 0 0 1-3 5h-2v-25h1z"/></g></g></svg>