<svg xmlns="http://www.w3.org/2000/svg" width="144" height="180" viewBox="0 0 144 180"><defs><style>.\35 d8f74ec-42b0-4ae8-b648-6c67618b977b{fill:#558496}</style></defs><title>pic9</title><g id="e64eb500-7c2d-4550-b355-a31ebbece4c7" data-name="Слой 2"><g id="96ed4c44-1cb1-45b6-aa4d-b74f7f36bdc7" data-name="Слой 1"><path id="d90cef2f-69dd-4f54-859c-79d9e0e6f640" data-name="Фигура 1492" class="5d8f74ec-42b0-4ae8-b648-6c67618b977b" d="M129 95a9 9 0 0 1 8 10 35 35 0 0 1-9 23 39 39 0 0 0-4 9 103 103 0 0 1-19 29 39 39 0 0 1-55 3l-3-3a110 110 0 0 1-21-33c-1-3-1-3-5-3a9 9 0 0 1-9-2 25 25 0 0 1-6-8 143 143 0 0 1-6-19 15 15 0 0 1 7-17v-2c1-9 1-19 1-28a48 48 0 0 1 10-25A67 67 0 0 1 64 1a73 73 0 0 1 42 5 63 63 0 0 1 35 37 45 45 0 0 1 3 15v28a5 5 0 0 1-4 4 4 4 0 0 1-4-4V65a50 50 0 0 0-12-35A59 59 0 0 0 84 8a62 62 0 0 0-41 8 57 57 0 0 0-27 38 34 34 0 0 0-1 7v23l3 4 2 6v2h1v-6a123 123 0 0 1-1-28 46 46 0 0 1 29-39 61 61 0 0 1 54 0 45 45 0 0 1 23 24 54 54 0 0 1 4 22c0 8-1 17-2 25zm-96 12v-2l-3-5h-5a3 3 0 0 0-1 3l6 21h1a60 60 0 0 0 28 19h3a7 7 0 0 1 7-4h7a8 8 0 0 1 0 16H63a75 75 0 0 1-20-8l-4-3 4 7a44 44 0 0 0 16 18 36 36 0 0 0 48-12 165 165 0 0 0 14-27l3-5a23 23 0 0 0 6-12 31 31 0 0 0 0-9 4 4 0 0 0-4-4l-4 3-3 6a163 163 0 0 0 3-26h-2a136 136 0 0 1-29-4 61 61 0 0 1-22-9L54 56h-4a26 26 0 0 0-16 11 20 20 0 0 0-4 8 87 87 0 0 0 1 17c0 5 2 10 2 15z"/></g></g></svg>