<svg xmlns="http://www.w3.org/2000/svg" width="14" height="20" viewBox="0 0 14 20"><defs><style>.cls-1{fill:#fff;fill-rule:evenodd;filter:url(#filter)}</style><filter id="filter" x="1100" y="61" width="14" height="20" filterUnits="userSpaceOnUse"><feFlood result="flood" flood-color="#767676"/><feComposite result="composite" operator="in" in2="SourceGraphic"/><feBlend result="blend" in2="SourceGraphic"/></filter></defs><path id="Фигура_813" data-name="Фигура 813" class="cls-1" d="M1108.04 61.268a5.879 5.879 0 0 0-5.98 1.486 6.705 6.705 0 0 0-1.91 6.284 6.868 6.868 0 0 0 3.48 4.724 5.541 5.541 0 0 0 3.69.471c.22-.043.32-.014.36.219q1.41 2.764 2.84 5.528a1.851 1.851 0 0 0 2.7.719 2.178 2.178 0 0 0 .7-2.221 1.588 1.588 0 0 0-.27-.527c-.85-1.813-1.83-3.553-2.77-5.4a.555.555 0 0 1 .01-.438 7.223 7.223 0 0 0 1.05-7.322 6.213 6.213 0 0 0-3.33-3.35zm-3.21 11.867a5.736 5.736 0 0 1-3.59-6.976 5.158 5.158 0 0 1 6.53-3.868 5.722 5.722 0 0 1 3.58 6.976 5.27 5.27 0 0 1-6.52 3.868zm7.11 6.949a1.109 1.109 0 0 1-.68-.542c-.95-1.842-1.83-3.553-2.78-5.4a.209.209 0 0 1 .09-.307 9.378 9.378 0 0 0 1.23-.73c.24-.146.24-.146.38.118l2.71 5.264c.06.132.06.132.13.264a1.036 1.036 0 0 1-.18 1.052.662.662 0 0 1-.9.281zm-2.13-11.623a4.064 4.064 0 0 0-1.3-3.948 2.715 2.715 0 0 0-1.16-.688c-.19-.058-.29-.088-.34.117a.28.28 0 0 0 .2.395 2.986 2.986 0 0 1 1.39.981 3.784 3.784 0 0 1 .81 3.129l-.06.2a.261.261 0 0 0 .23.292c.1.029.12-.073.18-.278 0 .005.03-.097.05-.2z" transform="translate(-1100 -61)"/></svg>