<svg xmlns="http://www.w3.org/2000/svg" width="41.625" height="65.82" viewBox="0 0 13.875 21.94"><defs><style>.cls-1{fill:#fff;fill-rule:evenodd;filter:url(#filter)}</style><filter id="filter" x="826.531" y="1017.84" width="13.875" height="21.94" filterUnits="userSpaceOnUse"><feFlood result="flood" flood-color="#1395d3"/><feComposite result="composite" operator="in" in2="SourceGraphic"/><feBlend result="blend" in2="SourceGraphic"/></filter></defs><path class="cls-1" d="M12.43 6.45L9.349 17.53a4 4 0 0 1-7.707-2.14L4.991 3.34a2.5 2.5 0 0 1 4.817 1.34L6.995 14.8a1 1 0 1 1-1.927-.54l2.545-9.15-1.445-.4-2.545 9.15A2.5 2.5 0 1 0 8.44 15.2l2.813-10.11a4.001 4.001 0 1 0-7.708-2.15L.197 14.99a5.5 5.5 0 1 0 10.6 2.94l3.081-11.08z"/></svg>