<svg xmlns="http://www.w3.org/2000/svg" width="342" height="351" viewBox="0 0 342 351"><defs><style>.f63324fc-ef28-412e-9389-73a6b78b93f6{fill:#4cccb3}</style></defs><title>Ресурс 1</title><g id="3a443a6c-36f0-486d-935e-c8894322a900" data-name="Слой 2"><g id="9dfc4f79-aead-4c65-b0e4-177a0cde9c6c" data-name="Слой 1"><path id="47fae04a-b01b-4645-93c0-befc4fe367e8" data-name="Ellipse 10 copy копия" class="f63324fc-ef28-412e-9389-73a6b78b93f6" d="M170 351a247 247 0 0 1-153-55c-23-18-22-28 1-44s26-18 40-26c28-16 55-29 90-16 17 6 39 3 57-2a73 73 0 0 1 58 6c20 11 41 20 60 31s27 32 4 50a248 248 0 0 1-157 56zm83-266c-1 54-37 95-83 95S88 137 89 79a79 79 0 0 1 79-79h4c50 1 82 36 82 85z"/></g></g></svg>