<svg xmlns="http://www.w3.org/2000/svg" width="24.94" height="25.781" viewBox="0 0 24.94 25.781"><defs><style>.cls-1{fill:#fff;fill-rule:evenodd}</style></defs><path id="Фигура_1566" data-name="Фигура 1566" class="cls-1" d="M1634.56 116.521a18 18 0 0 1-11.16-4.04c-1.65-1.309-1.64-2.037.04-3.234.94-.675 1.9-1.347 2.9-1.928 2.03-1.175 4.01-2.141 6.56-1.214a7.432 7.432 0 0 0 4.15-.13 5.315 5.315 0 0 1 4.21.469c1.44.8 2.95 1.48 4.37 2.309 1.9 1.1 1.98 2.367.28 3.709a18.037 18.037 0 0 1-11.35 4.059zm6.08-19.49c-.05 3.966-2.69 7-6.05 6.976-3.49-.03-6.01-3.19-5.94-7.444a6 6 0 1 1 11.99.469z" transform="translate(-1622.19 -90.75)"/></svg>